<?xml version="1.0" standalone="no"?>
<!DOCTYPE svg PUBLIC "-//W3C//DTD SVG 20010904//EN"
 "http://www.w3.org/TR/2001/REC-SVG-20010904/DTD/svg10.dtd">
<svg version="1.0" xmlns="http://www.w3.org/2000/svg"
 width="404.000000pt" height="206.000000pt" viewBox="0 0 404.000000 206.000000"
 preserveAspectRatio="xMidYMid meet">
<metadata>
Created by potrace 1.16, written by Peter Selinger 2001-2019
</metadata>
<g transform="translate(0.000000,206.000000) scale(0.100000,-0.100000)"
fill="#000000" stroke="none">
<path d="M0 2050 c0 -7 218 -10 633 -11 360 0 623 -4 612 -9 -11 -5 -42 -27
-69 -49 -26 -23 -53 -41 -60 -41 -6 0 -29 14 -50 30 -55 42 -80 39 -130 -14
-25 -28 -66 -56 -107 -74 -38 -17 -74 -41 -85 -57 -10 -15 -40 -48 -67 -73
-26 -25 -60 -66 -76 -92 -16 -26 -67 -84 -113 -129 l-83 -81 -122 0 -123 0 0
-104 0 -105 38 -3 37 -3 3 -214 c2 -118 1 -225 -3 -238 -4 -19 -12 -23 -40
-23 l-35 0 0 -110 0 -110 185 0 186 0 -3 108 -3 107 -37 3 -38 3 0 155 c0 85
2 154 4 154 2 0 55 -73 117 -162 62 -90 133 -192 159 -228 26 -36 60 -84 75
-107 l28 -43 148 0 149 0 0 339 c0 187 3 346 6 355 4 10 18 16 40 16 41 0 46
14 42 125 l-3 80 -182 3 -183 2 0 -105 0 -105 35 0 35 0 0 -127 c0 -111 -2
-125 -14 -113 -15 15 -114 156 -226 321 -88 129 -88 129 -126 129 -19 0 -34 5
-34 10 0 6 6 10 14 10 39 0 232 203 258 271 4 10 17 19 29 19 11 0 51 14 89
30 77 34 102 38 94 15 -10 -24 25 -18 86 16 30 17 80 39 110 49 51 18 55 18
64 2 5 -9 25 -32 44 -50 l35 -34 -25 -21 c-14 -12 -33 -33 -41 -47 -14 -25
-31 -90 -22 -90 2 0 43 29 90 65 48 36 90 65 94 65 19 0 171 -78 228 -117 43
-30 64 -39 69 -31 4 7 0 16 -10 22 -10 6 -35 24 -55 39 -20 16 -48 35 -63 43
-42 22 -53 49 -31 79 26 36 51 40 84 16 19 -14 37 -19 53 -15 21 5 26 1 40
-43 9 -27 32 -74 51 -103 36 -57 44 -85 23 -92 -8 -3 2 -21 25 -50 20 -25 37
-48 37 -52 0 -3 -18 -6 -40 -6 -36 0 -40 -2 -40 -26 0 -14 -3 -24 -7 -22 -107
54 -125 60 -201 60 -86 0 -144 -20 -201 -68 -81 -67 -106 -210 -55 -311 36
-74 88 -115 230 -184 140 -67 164 -86 164 -128 0 -36 -18 -51 -67 -58 -48 -6
-99 26 -128 80 l-20 37 -103 0 -103 0 3 -142 3 -143 100 0 c96 0 100 1 103 23
2 12 5 22 6 22 2 0 30 -12 62 -27 51 -24 72 -28 149 -28 105 1 157 20 219 80
111 110 106 287 -13 398 -27 25 -103 72 -189 116 -158 81 -178 101 -148 146
33 51 148 22 176 -45 15 -37 33 -42 135 -38 l80 3 5 60 c5 58 6 59 21 38 22
-32 90 -84 100 -77 5 3 9 14 9 25 0 26 14 24 88 -11 35 -17 72 -30 82 -30 28
0 32 -15 16 -57 -8 -21 -38 -103 -67 -183 -28 -80 -56 -157 -61 -172 -8 -23
-16 -28 -44 -28 l-34 0 0 -110 0 -110 178 2 177 3 3 98 3 97 -36 0 c-40 0 -41
3 -19 71 l17 50 115 -3 115 -3 18 -52 c9 -28 15 -54 11 -57 -3 -3 -20 -6 -39
-6 l-33 0 0 -99 c0 -96 1 -100 23 -103 15 -2 21 -9 19 -21 -2 -14 1 -17 15
-13 76 23 127 30 263 35 151 6 155 7 158 29 3 21 6 22 130 22 119 0 263 -17
341 -40 19 -5 37 -7 40 -4 8 8 -158 333 -224 437 -30 49 -55 92 -55 98 0 24
254 -2 360 -37 41 -14 94 -37 118 -51 24 -13 46 -23 48 -20 2 2 -24 44 -58 93
-96 135 -230 260 -393 365 -55 35 -270 149 -282 149 -8 0 -27 -42 -159 -362
-26 -65 -50 -118 -54 -118 -5 0 -50 118 -50 133 0 4 16 7 35 7 l35 0 0 105 0
105 -325 0 -325 0 0 -50 c0 -37 -4 -50 -14 -50 -8 0 -17 4 -20 9 -3 5 -36 27
-73 49 -47 27 -75 52 -90 79 -12 21 -42 58 -67 83 -25 24 -46 48 -46 53 0 8
-26 40 -121 150 -20 23 -42 58 -48 79 -8 25 -19 38 -37 42 -13 4 -42 22 -64
42 -38 35 -39 35 -72 20 -18 -9 -53 -23 -78 -31 -42 -15 -46 -15 -55 2 -5 10
-31 39 -57 66 l-48 47 1320 0 c873 0 1320 3 1320 10 0 7 -680 10 -2020 10
-1340 0 -2020 -3 -2020 -10z m3300 -734 c0 -4 7 -5 16 -2 12 4 15 2 10 -9 -3
-8 -1 -15 5 -15 6 0 8 -4 4 -9 -3 -5 0 -13 5 -16 7 -5 5 -12 -7 -21 -17 -13
-17 -14 2 -7 11 3 35 18 53 31 40 30 41 18 3 -29 -75 -90 -236 -118 -288 -50
-15 19 -17 87 -3 96 6 3 10 0 10 -8 0 -7 12 -24 27 -38 20 -19 25 -20 20 -6
-4 11 -1 20 8 23 8 4 12 10 9 16 -3 5 3 12 15 15 12 3 21 9 21 14 0 5 9 9 20
9 11 0 20 4 20 9 0 5 11 8 25 7 14 0 25 -5 25 -10z m-693 -224 c18 -59 33
-110 33 -114 0 -5 -36 -8 -80 -8 -44 0 -80 1 -80 3 0 3 66 200 75 226 9 23 18
5 52 -107z m553 -122 c0 -19 2 -20 30 -5 38 20 43 19 30 -5 -12 -22 -5 -44 11
-35 5 4 14 3 19 0 6 -4 0 -15 -16 -27 l-26 -21 23 -13 c23 -12 23 -12 -15 -28
-30 -13 -36 -19 -31 -36 5 -17 2 -20 -24 -20 -22 0 -35 -7 -47 -26 -14 -20
-23 -24 -42 -19 -18 4 -31 0 -48 -16 l-24 -22 0 21 c0 26 -2 26 -40 7 -32 -17
-36 -14 -20 16 9 16 7 19 -15 19 -31 0 -31 7 -2 30 20 17 20 19 5 25 -27 11
-22 25 13 37 25 9 30 14 25 34 -6 21 -3 24 25 24 25 0 33 6 42 30 12 32 26 37
45 18 10 -10 17 -7 34 10 28 27 48 28 48 2z"/>
</g>
</svg>
